#N canvas 407 39 809 615 10;
#X msg 119 189 stop;
#X msg 129 209 clear;
#X obj 133 519 loadbang;
#X obj 133 540 tgl 15 0 empty empty empty 17 7 0 10 -262144 -1 -1 1
1;
#X obj 133 561 metro 100;
#X obj 69 519 snapshot~;
#X floatatom 69 540 5 0 0 0 - - -;
#X obj 110 558 bng 15 250 50 0 empty empty empty 17 7 0 10 -262144
-1 -1;
#X msg 74 89 white;
#X msg 84 115 brown;
#X msg 94 145 pink;
#X text 127 487 Arguments: [no. input = 1 \, no. output = 1];
#X text 243 24 sweep [lo freq = 20 hz \, hi freq = nyquist \, length
= 30000 ms \, fade in = 50 ms \, fade out = 10 ms \, expected IR length
= 5000 ms];
#X text 152 59 maximum length sequence [order = 18 \, expected IR length
= 5000 ms];
#X text 117 84 white noise [length = 10000 ms \, fade in = 10 ms \,
fade out = 10 ms \, expected IR length = 5000 ms];
#X text 127 113 brown noise [length = 10000 ms \, fade in = 10 ms \,
fade out = 10 ms \, expected IR length = 5000 ms];
#X text 133 142 pink noise [length = 10000 ms \, fade in = 10 ms \,
fade out = 10 ms \, expected IR length = 5000 ms];
#X text 156 188 cancel measurement;
#X text 173 211 cancel measurements and clear all allocated memory
;
#X msg 133 242 reprocess;
#X text 179 172 test tone: freq - channel [= 0 (all)];
#N canvas 219 141 1047 486 table 0;
#N canvas 0 23 450 278 (subpatch) 0;
#X array ir-table 4410 float 2;
#X coords 0 0.001 4410 -0.001 200 140 1 0 0;
#X restore 85 192 graph;
#N canvas 0 22 450 278 (subpatch) 0;
#X array filter-table 100 float 3;
#A 0 0 0 0 0 0 0 0 0 0 0 0 0 0 0 0 0 0 0 0 0 0 0 0 0 0 0 0 0 0 0 0
0 0 0 0 0 0 0 0 0 0 0 0 0 0 0 0 0 0 0 0 0 0 0 0 0 0 0 0 0 0 0 0 0 0
0 0 0 0 0 0 0 0 0 0 0 0 0 0 0 0 0 0 0 0 0 0 0 0 0 0 0 0 0 0 0 0 0 0
0;
#X coords 0 1 100 -1 200 140 1 0 0;
#X restore 305 192 graph;
#X text 44 183 0.001;
#X text 38 324 -0.001;
#N canvas 0 22 450 278 (subpatch) 0;
#X array sig-table 100 float 3;
#A 0 0 0 0 0 0 0 0 0 0 0 0 0 0 0 0 0 0 0 0 0 0 0 0 0 0 0 0 0 0 0 0
0 0 0 0 0 0 0 0 0 0 0 0 0 0 0 0 0 0 0 0 0 0 0 0 0 0 0 0 0 0 0 0 0 0
0 0 0 0 0 0 0 0 0 0 0 0 0 0 0 0 0 0 0 0 0 0 0 0 0 0 0 0 0 0 0 0 0 0
0;
#X coords 0 1 100 -1 200 140 1 0 0;
#X restore 525 192 graph;
#X restore 678 271 pd table;
#X msg 462 422 invamp \$1;
#X obj 462 403 tgl 15 0 empty empty empty 17 7 0 10 -262144 -1 -1 0
1;
#N canvas 557 107 450 300 todo 0;
#X text 56 27 ISSUE:;
#X text 54 52 1 ampliare documentazione;
#X text 55 72 2 correggere durata sweep;
#X text 54 92 3 metodo full scale --> done;
#X restore 678 329 pd todo;
#X msg 104 170 tone 220 0;
#N canvas 625 283 450 347 help 0;
#X text 29 19 This object can be used to measure IRs using the ESS
(exponentially swept sine) \, MLS (maximum length sequences) or various
coloured-noise signals (which whilst less accurate \, may be preferable
in occupied rooms where a rough estimate is acceptable). As well as
handling multichannel situations \, the object also deals with the
processing and chopping of IRs (including the relative timing of non-linear
components when using the ESS signal) \, allowing the user to retrieve
the IRs directly without needing to carry out recording \, deconvolution
and chopping processes manually. In use \, an excitation signal is
sent to the measurement outputs of the object \, (which are routed
to the input of a system - e.g. a speaker in a room) whilst the object
simultaneously records the output of the same system (captured for
instance by a mic in a room) - thus it is necessary to create a loop
through the sytem from output to input.;
#X text 29 206 NB: in this help the loop mechanics is created by a
pure send/receive loop \, without anything in the middle. Before to
start with a real application \, you can try putting some digital filters
(e.g. [lop~ 100] \, [hip~ 100] \, ...) between [r~ loop] and [irmeasure~]
\, and then move to a real case substituting [s~ loop] with [dac~]
and [r~ loop] with [adc~]. If it is the first time you IR (anything)
\, pay attention to correct route your system and to adjust carefully
the amplitude: you can be louder than Motorhead :);
#X restore 678 11 pd help;
#N canvas 529 34 450 434 deconvfilter 0;
#X text 51 24 deconvfilter -- deconvolution filter specification;
#X text 50 237 additionally you may specify the name of a buffer as
the filter specification in which case the power spectrum of the buffer
is used to determine the specification for 'regularisation' and 'clipping'
modes \, and the buffer is applied directly as a convolution filter
in 'filter' mode (ignoring the deconvphase setting in this case). this
allows a high degree of control of the process for special applications
or custom solutions.;
#X text 57 349 default values: 20 \, -20 \, 30 \, -100 \, 19000 \,
-100 \, 22050 \, -20;
#X text 56 366 otherwise: name_buffer;
#X text 51 52 regardless of the deconvolution mode it is necessary
to set a specification for how to control the deconvolution over the
frequency range. the filter specification sets a frequency curve to
apply to the revelent mode. you may either specify a static value in
dB \, or a list of freq/dB values to vary the specification with frequency.
for 'regularisation' this sets the constant value to add to the divisor.
for 'clipping' it sets the minimum values allowed for the division.
for 'filter' it sets the shape of the filter. typically \, for standard
usage \, very low or high frequencies are liable to blowup through
overcorretion or numeric error. thus higher values for 'regularisation'
and 'clipping' are appropriate at low/high frequencies. the 'filter'
mode works in the inverse \, and lower values (less gain) is generally
more appropriate for extremes of frequency.;
#X restore 678 51 pd deconvfilter;
#N canvas 0 23 450 300 deconvmode 0;
#X text 39 23 deconvmode -- deconvolution filter mode;
#X text 39 43 deconvolution must be controlled so as to prevent filter
blow-up or excessive time-aliasing. the control is equivalent to filtering
the result of a straightforward complex division in the frequency domain
(hence the term fiter). the three modes are:;
#X text 38 113 regularisation - regularise the division by adding a
constant to the division;
#X text 39 143 clipping - clip the denominator in the division;
#X text 39 161 filter - specify the filter explicitly;
#X restore 678 31 pd deconvmode;
#N canvas 0 23 450 300 deconvrange 0;
#X text 62 37 deconvrange -- deconvolution range specification;
#X text 63 80 When deconvmode is 'Clipping' the denominator of the
divsion can be clipped to both minimum values (controlling peaks in
the output) and also maximum values (controlling dips in the output).
The deconvrange attibute sets the maximum values in relation to the
filter specification. Similarly to the deconvolution filter specification
\, you may either specify a single value in dB or use a list of freq/dB
pairs to vary the range with frequency.;
#X text 66 193 default: deconvrange 100;
#X restore 678 71 pd deconvrange;
#N canvas 0 23 450 300 deconvphase 0;
#X text 55 67 The method by which deconvolution is controlled acts
as a FIR filter on result of the 'true deconvolution'. This filter
will produce time smearing of the result. This can result in pre or
post ring in the resultant IR. By controlling the phase of the implicit
filter we can control this ring. The default is minimum phase which
post-rings only. The phase may either be specified as a float value
between 0 and 1 (where 0 is minimum phase \, 0.5 is linear phase and
1 is maximum phase) \, or using any of the following symbols:;
#X text 56 39 deconvphase -- deconvolution filter phase;
#X text 55 182 min / minimum --- lin / linear -- max / maximum;
#X text 49 204 - Minimum Phase -- Linear Phase -- Maximum Phase;
#X restore 678 91 pd deconvphase;
#X obj 29 585 s~ loop;
#X obj 29 8 r~ loop;
#X obj 454 365 tgl 15 0 empty empty empty 17 7 0 10 -262144 -1 -1 0
1;
#X msg 454 384 bandlimit \$1;
#N canvas 629 192 518 361 soundfiler-write 0;
#X obj 39 44 soundfiler;
#X floatatom 39 65 7 0 0 0 - - -;
#X msg 39 24 write -wave -bytes 3 ./snd/your-IR.wav ir-table;
#X obj 39 114 soundfiler;
#X floatatom 39 135 7 0 0 0 - - -;
#X msg 39 94 write -wave -bytes 3 ./snd/your-sig.wav sig-table;
#X connect 0 0 1 0;
#X connect 2 0 0 0;
#X connect 3 0 4 0;
#X connect 5 0 3 0;
#X restore 678 289 pd soundfiler-write;
#N canvas 155 202 518 361 soundfiler-read 0;
#X obj 39 67 soundfiler;
#X floatatom 39 88 7 0 0 0 - - -;
#X msg 39 23 read -resize /Users/dis/Documents/Library/ir~/src/snd/sw-0.wav
filter-table;
#X connect 0 0 1 0;
#X connect 2 0 0 0;
#X restore 678 309 pd soundfiler-read;
#N canvas 498 75 450 231 bandlimit 0;
#X text 51 24 bandlimit -- bandlimit sweep measurements;
#X text 51 52 When this is on measurements taken using the sweep signal
are automatically bandlimited to the range of the sweep (the deconvolution
filter is automatically generated \, bypassing the deconvolution filter
settings). The fade times determine the steepness of the filter slope
at low and high frequencies (shorter fade in time gives a steeper LF
rolloff \, shorter fade outs give a steeper HF rolloff). This is the
most appropriate setting for acoustic measurements. When off \, the
deconvolution filter settings are used for sweep measurements. This
may be more appropriate for measuring within a digital system \, or
when hand tuning of settings is desirable. This attribute does not
affect measurements using the mls or coloured noise signals.;
#X restore 678 131 pd bandlimit;
#N canvas 498 75 450 231 invamp 0;
#X text 51 24 invamp -- invert amplitude;
#X text 51 52 When on the object will perform deconvolution taking
into account the output level. This correctly measures the gain of
the system tested. As for acoustic measurements the exact gain of the
analog part of the system is essentially arbitrary (due to mic gains
etc.) this defaults to off. When measuring digital systems etc. \,
or situations where the gain is controlled you should switch this on
to correctly capture gain information.;
#X restore 678 151 pd invamp;
#X msg 471 443 deconvmode 0;
#N canvas 0 23 450 300 deconvdelay 0;
#X text 59 47 deconvdelay -- deconvolution modelling delay;
#X text 59 73 Deconvolution can result in time-aliasing. In order to
make sure that the resultant IR is correctly contained within the period
of the FFT \, it may be necessary to introduce a modelling delay (shifting
the output of the deconvolution). This delay can either be set in milliseconds
or using the symbol 'center' which sets the delay to half of the FFT
size. This attribute is not available in the irmeasure~ objects \,
as the timing is tightly controlled by the synchronous recording/playback
process \, making a modelling delay unnecessary.;
#X text 59 201 this essentially generates a dirac delta function \,
ie a single sample spike in the digital domain.;
#X text 62 263 --> this method is not used in [irmeasure~];
#X restore 678 111 pd deconvdelay;
#X text 203 226 once the measurement is finished the recordings are
automatically processed. this message allows you to reprocess the recordings
using different convolution settings. dsp must be on.;
#X msg 485 484 deconvdelay 0;
#X msg 479 464 deconvrange 20 100 30 100 19000 60 22050 20;
#X msg 492 503 deconvfilter 20 -20 30 -100 19000 -100 22050 -20;
#X obj 256 534 env~ 16384;
#X floatatom 256 556 5 0 0 0 - - -;
#X obj 29 488 irmeasure~ 1 1;
#X obj 86 434 r toirmeasure;
#X obj 454 586 s toirmeasure;
#X floatatom 511 543 5 0 0 0 - - -;
#X msg 511 563 fullscale \$1;
#N canvas 498 75 450 231 fullscale 0;
#X text 51 24 fullscale -- amplitude of the outcoming signal;
#X text 51 52 It is possible to set the amplitude of the outcoming
signal. By default it is set to 0 dB (while in HIRT version it is -1
dB) \; however it possible to set it to a chosen value in the limit
[-100 \, 385] dB.;
#X restore 678 171 pd fullscale;
#X text 88 584 read [pd help] to replace this simple loop mechanics
;
#X text 85 9 read [pd help] to replace this simple loop mechanics;
#X msg 498 524 deconvfilter filter-table;
#X msg 137 281 getir ir-table 1 1 1;
#X msg 152 318 extract 1 sig-table;
#X text 273 276 save to a buffer the IR resizing appropriately the
buffer: buffer name [no. in chan = 1 \, out chan = 1 \, harmonic =
1];
#X text 281 314 save to a buffer the incoming signal resizing appropriately
the buffer: no. in chan = 1 \, buffer name;
#X msg 45 29 sweep 20 22050 30000 50 10 5000;
#X msg 61 62 mls 21 5000;
#X connect 0 0 47 0;
#X connect 1 0 47 0;
#X connect 2 0 3 0;
#X connect 3 0 4 0;
#X connect 4 0 5 0;
#X connect 5 0 6 0;
#X connect 8 0 47 0;
#X connect 9 0 47 0;
#X connect 10 0 47 0;
#X connect 19 0 47 0;
#X connect 22 0 49 0;
#X connect 23 0 22 0;
#X connect 25 0 47 0;
#X connect 32 0 47 0;
#X connect 33 0 34 0;
#X connect 34 0 49 0;
#X connect 39 0 49 0;
#X connect 42 0 49 0;
#X connect 43 0 49 0;
#X connect 44 0 49 0;
#X connect 45 0 46 0;
#X connect 47 0 31 0;
#X connect 47 0 45 0;
#X connect 47 1 5 0;
#X connect 47 2 7 0;
#X connect 48 0 47 0;
#X connect 50 0 51 0;
#X connect 51 0 49 0;
#X connect 55 0 49 0;
#X connect 56 0 47 0;
#X connect 57 0 47 0;
#X connect 60 0 47 0;
#X connect 61 0 47 0;
